# AST/ASF file generated using VICON BodyLanguage
# -----------------------------------------------
:version 1.10
:name VICON
:units
  mass 1.0
  length 0.45
  angle deg
:documentation
   .ast/.asf automatically generated from VICON data using
   VICON BodyBuilder and BodyLanguage model FoxedUp or BRILLIANT.MOD
:root
   order TX TY TZ RX RY RZ
   axis XYZ
   position 0 0 0  
   orientation 0 0 0 
:bonedata
  begin
     id 1 
     name lhipjoint
     direction 0.528046 -0.759594 0.379717 
     length 2.39752 
     axis 0 0 0  XYZ
  end
  begin
     id 2 
     name lfemur
     direction 0.34202 -0.939693 0  
     length 7.31175  
     axis 0 0 20  XYZ
    dof rx ry rz
    limits (-160.0 20.0)
           (-70.0 70.0)
           (-60.0 70.0)
  end
  begin
     id 3 
     name ltibia
     direction 0.34202 -0.939693 0   
     length 7.52482   
     axis 0 0 20   XYZ
    dof rx
    limits (-10.0 170.0)
  end
  begin
     id 4 
     name lfoot
     direction 0.0675379 -0.185559 0.980309   
     length 2.00961   
     axis -90 7.62852e-016 20   XYZ
    dof rx rz
    limits (-45.0 90.0)
           (-70.0 20.0)
  end
  begin
     id 5 
     name ltoes
     direction 1.5352e-011 -4.22286e-011 1   
     length 1.01383   
     axis -90 7.62852e-016 20   XYZ
    dof rx
    limits (-90.0 20.0)
  end
  begin
     id 6 
     name rhipjoint
     direction -0.510274 -0.769251 0.384544   
     length 2.36742  
     axis 0 0 0  XYZ 
  end
  begin
     id 7 
     name rfemur
     direction -0.34202 -0.939693 0   
     length 7.45325   
     axis 0 0 -20   XYZ
    dof rx ry rz
    limits (-160.0 20.0)
           (-70.0 70.0)
           (-70.0 60.0)
  end
  begin
     id 8 
     name rtibia
     direction -0.34202 -0.939693 0   
     length 7.49587   
     axis 0 0 -20   XYZ
    dof rx
    limits (-10.0 170.0)
 end
 begin
     id 9 
     name rfoot
     direction -0.106475 -0.292536 0.950308   
     length 2.20898  
     axis -90 -7.62852e-016 -20   XYZ
    dof rx rz
    limits (-45.0 90.0)
           (-20.0 70.0)
  end
  begin
     id 10 
     name rtoes
     direction -1.53597e-011 -4.22023e-011 1   
     length 1.10065   
     axis -90 -7.62852e-016 -20   XYZ
    dof rx
    limits (-90.0 20.0)
  end
  begin
     id 11 
     name lowerback
     direction 0.0260024 0.998026 -0.0571652   
     length 2.11214   
     axis 0 0 0   XYZ
    dof rx ry rz
    limits (-20.0 45.0)
           (-30.0 30.0)
           (-30.0 30.0)
  end
  begin
     id 12 
     name upperback
     direction 0.0216202 0.999542 -0.0211766   
     length 2.11689   
     axis 0 0 0   XYZ
    dof rx ry rz
    limits (-20.0 45.0)
           (-30.0 30.0)
           (-30.0 30.0)
  end
  begin
     id 13 
     name thorax
     direction 0.00883312 0.999944 0.00589057   
     length 2.11821   
     axis 0 0 0   XYZ
    dof rx ry rz
    limits (-20.0 45.0)
           (-30.0 30.0)
           (-30.0 30.0)
  end
  begin
     id 14 
     name lowerneck
     direction -0.059386 0.994433 0.0870401   
     length 1.81176   
     axis 0 0 0   XYZ
    dof rx ry rz
    limits (-20.0 45.0)
           (-30.0 30.0)
           (-30.0 30.0)
  end
  begin
     id 15 
     name upperneck
     direction 0.0506457 0.97328 -0.223967   
     length 1.82382   
     axis 0 0 0   XYZ
    dof rx ry rz
    limits (-20.0 45.0)
           (-30.0 30.0)
           (-30.0 30.0)
  end
  begin
     id 16
     name head
     direction 0.0205902 0.996147 -0.0852487  
     length 1.84805  
     axis 0 0 0   XYZ
    dof rx ry rz
    limits (-20.0 45.0)
           (-30.0 30.0)
           (-30.0 30.0)
  end
  begin
     id 17 
     name lclavicle
     direction 0.949493 0.303881 -0.0782325  
     length 3.60584  
     axis 0 0 0   XYZ
    dof ry rz
    limits (-20.0 10.0)
           (0.0 20.0)
  end
  begin
     id 18 
     name lhumerus
     direction 1 -4.48965e-011 1.48782e-027   
     length 4.95681   
     axis 180 -30 -90   XYZ
    dof rx ry rz
    limits (-60.0 90.0)
           (-90.0 90.0)
           (-90.0 90.0)
  end
  begin
     id 19
     name lradius
     direction 1 -4.48952e-011 2.06528e-027   
     length 3.40915   
     axis 180 -30 -90   XYZ
    dof rx
    limits (-10.0 170.0)
  end
  begin
     id 20
     name lwrist
     direction 1 -4.48964e-011 1.28021e-027   
     length 1.70457   
     axis -1.61767e-015 90 90   XYZ
    dof ry
    limits (-180.0 0.0)
 end
  begin
     id 21 
     name lhand
     direction 1 -4.49094e-011 2.54887e-027   
     length 0.616403   
     axis -1.63363e-015 90 90   XYZ
    dof rx rz
    limits (-90.0 90.0)
           (-45.0 45.0)
  end
  begin
     id 22 
     name lfingers
     direction 1 -4.49002e-011 5.11407e-027   
     length 0.49696   
     axis -3.26723e-015 90 90   XYZ
    dof rx
    limits (0.0 90.0)
  end
  begin
     id 23
     name lthumb
     direction 0.707107 -6.34998e-011 0.707107   
     length 0.713539   
     axis -90 45 -2.25915e-014   XYZ
    dof rx rz
    limits (-45.0 45.0)
           (-45.0 45.0)
  end
  begin
     id 24 
     name rclavicle
     direction -0.937751 0.334612 -0.0930482   
     length 3.46287  
     axis 0 0 0   XYZ 
    dof ry rz
    limits (-10.0 20.0)
           (-20.0 0.0)
  end
  begin
     id 25 
     name rhumerus
     direction -1 -4.48962e-011 3.59972e-027  
     length 5.352   
     axis 180 30 90   XYZ
    dof rx ry rz
    limits (-90.0 60.0)
           (-90.0 90.0)
           (-90.0 90.0)
  end
  begin
     id 26 
     name rradius
     direction -1 -4.48987e-011 -3.76925e-027   
     length 3.43721   
     axis 180 30 90   XYZ
    dof rx
    limits (-10.0 170.0)
  end
  begin
     id 27 
     name rwrist
     direction -1 -4.48943e-011 1.28112e-027   
     length 1.7186   
     axis -1.61767e-015 -90 -90   XYZ
    dof ry
    limits (-180.0 0.0)
  end
  begin
     id 28
     name rhand
     direction -1 -4.49027e-011 2.55483e-027   
     length 0.72009   
     axis -1.63363e-015 -90 -90   XYZ
    dof rx rz
    limits (-90.0 90.0)
           (-45.0 45.0)
  end
  begin
     id 29
     name rfingers
     direction -1 -4.48827e-011 5.14506e-027   
     length 0.580555   
     axis -3.26723e-015 -90 -90   XYZ
    dof rx
    limits (0.0 90.0)
  end
  begin
     id 30
     name rthumb
     direction -0.707107 -6.34936e-011 0.707107   
     length 0.833564   
     axis -90 -45 2.25915e-014   XYZ
    dof rx rz
    limits (-45.0 45.0)
           (-45.0 45.0)
  end
:hierarchy
  begin
    root lhipjoint rhipjoint lowerback
    lhipjoint lfemur
    lfemur ltibia
    ltibia lfoot
    lfoot ltoes
    rhipjoint rfemur
    rfemur rtibia
    rtibia rfoot
    rfoot rtoes
    lowerback upperback
    upperback thorax
    thorax lowerneck lclavicle rclavicle
    lowerneck upperneck
    upperneck head
    lclavicle lhumerus
    lhumerus lradius
    lradius lwrist
    lwrist lhand lthumb
    lhand lfingers
    rclavicle rhumerus
    rhumerus rradius
    rradius rwrist
    rwrist rhand rthumb
    rhand rfingers
  end

#!OML:ASF H:\Terrain\Patient Classification 1\Terrain2\Thursday\justin.ASF
:FULLY-SPECIFIED
:DEGREES
133
root 5.92945 17.7391 -10.9495 -117.199 77.8725 -111.027
lowerback 3.52517 0.381577 4.99776
upperback 1.77793 0.855779 5.08547
thorax -0.156752 0.50913 2.40473
lowerneck -9.87015 -3.70786 -9.25662
upperneck 41.9437 -1.93539 3.537
head 17.1927 -0.963293 3.22058
rclavicle -7.57245e-015 3.89618e-014
rhumerus -33.2032 -26.8928 -67.8221
rradius 17.9705
rwrist 1.89205
rhand -22.9346 11.3748
rfingers 7.12502
rthumb 3.50625 -18.5761
lclavicle -7.57245e-015 3.89618e-014
lhumerus -41.5671 19.6313 77.0473
lradius 25.0147
lwrist 0.870969
lhand -18.9328 22.8332
lfingers 7.12502
lthumb 7.37004 52.6848
rfemur -1.60392 -10.529 33.7282
rtibia 23.0755
rfoot -6.48494 2.07492
rtoes 3.42837
lfemur 3.32766 -4.6641 -3.17671
ltibia 77.6292
lfoot 8.12531 -18.7931
ltoes 0.199173
134
root 6.01571 17.7553 -10.9395 -115.325 77.5899 -109.167
lowerback 3.56337 0.399764 5.32365
upperback 1.8795 0.901183 5.28125
thorax -0.0717151 0.54092 2.42553
lowerneck -9.93084 -3.72581 -9.2282
upperneck 41.9872 -2.00928 3.64105
head 17.2399 -0.977334 3.25334
rclavicle -3.37856e-015 -5.18828e-014
rhumerus -32.5047 -27.429 -67.8862
rradius 17.7036
rwrist 2.11724
rhand -23.3825 11.0515
rfingers 7.12502
rthumb 3.0737 -18.9061
lclavicle -3.37856e-015 -5.18828e-014
lhumerus -41.1178 19.2727 77.7485
lradius 25.42
lwrist 1.54841
lhand -18.9067 22.9852
lfingers 7.12502
lthumb 7.39524 52.8359
rfemur -1.17285 -10.1391 34.2142
rtibia 22.7775
rfoot -7.07882 2.33846
rtoes -0.322702
lfemur 1.48548 -4.30384 -2.37809
ltibia 80.1693
lfoot 6.94079 -18.5673
ltoes -0.342947
135
root 6.0977 17.7678 -10.9257 -113.754 77.1983 -107.512
lowerback 3.68364 0.467394 5.73755
upperback 2.01632 1.02516 5.51828
thorax 0.00476701 0.614987 2.43742
lowerneck -9.89628 -3.79946 -9.45798
upperneck 41.9996 -2.1915 3.96958
head 17.2673 -1.04473 3.41787
rclavicle 2.66133e-014 8.64713e-014
rhumerus -31.8683 -27.6243 -67.9778
rradius 17.5962
rwrist 1.88982
rhand -23.7414 10.5079
rfingers 7.12502
rthumb 2.72707 -19.4544
lclavicle 2.66133e-014 8.64713e-014
lhumerus -40.4978 18.3465 78.8187
lradius 25.8242
lwrist 2.50574
lhand -18.5429 23.2864
lfingers 7.12502
lthumb 7.74636 53.1245
rfemur -0.482169 -9.72114 34.7855
rtibia 22.1392
rfoot -7.05598 2.28927
rtoes 0.233278
lfemur -0.231983 -3.94878 -1.45885
ltibia 82.5989
lfoot 5.363 -18.5688
ltoes 0.0577395
136
root 6.18363 17.7872 -10.9144 -112.928 77.1209 -106.278
lowerback 4.12407 0.610819 5.94582
upperback 2.26387 1.26079 5.59872
thorax 0.0166542 0.741929 2.39321
lowerneck -9.72433 -3.91649 -9.51409
upperneck 41.8576 -2.45838 4.15798
head 17.1726 -1.13689 3.46288
rclavicle 4.46178e-015 1.82882e-014
rhumerus -31.3166 -27.9092 -68.1457
rradius 17.6422
rwrist 1.37996
rhand -24.2146 10.1827
rfingers 7.12502
rthumb 2.27014 -19.7849
lclavicle 4.46178e-015 1.82882e-014
lhumerus -39.7985 17.4421 79.7826
lradius 26.1606
lwrist 2.73954
lhand -18.047 23.4451
lfingers 7.12502
lthumb 8.22496 53.265
rfemur 0.64541 -9.31174 34.9119
rtibia 21.4195
rfoot -6.73095 2.16906
rtoes 2.66888
lfemur -1.50588 -3.511 -1.00205
ltibia 84.7914
lfoot 3.31902 -18.4963
ltoes 0.835385
137
root 6.27229 17.8202 -10.9044 -111.701 77.1896 -104.725
lowerback 4.48041 0.771092 6.05543
upperback 2.48596 1.50368 5.59758
thorax 0.0504225 0.869949 2.31817
lowerneck -9.6152 -4.0053 -9.49548
upperneck 41.8007 -2.68386 4.33691
head 17.1368 -1.20213 3.50182
rclavicle 1.00542e-014 -1.61016e-014
rhumerus -30.7742 -28.6125 -68.3552
rradius 17.6601
rwrist 1.49189
rhand -24.6628 10.2082
rfingers 7.12502
rthumb 1.83719 -19.7637
lclavicle 1.00542e-014 -1.61016e-014
lhumerus -39.1243 16.6205 80.5549
lradius 26.4735
lwrist 2.45092
lhand -17.7022 23.2019
lfingers 7.12502
lthumb 8.55775 53.0085
rfemur 1.5716 -8.95538 34.9688
rtibia 20.8448
rfoot -6.02259 2.07296
rtoes 2.96183
lfemur -2.8628 -2.86594 -0.648593
ltibia 86.8126
lfoot 0.897453 -18.1183
ltoes -1.03404
